<?xml version="1.0" standalone="no"?>
<!DOCTYPE svg PUBLIC "-//W3C//DTD SVG 20010904//EN"
 "http://www.w3.org/TR/2001/REC-SVG-20010904/DTD/svg10.dtd">
<svg version="1.0" xmlns="http://www.w3.org/2000/svg"
 width="512.000000pt" height="512.000000pt" viewBox="0 0 512.000000 512.000000"
 preserveAspectRatio="xMidYMid meet">
<metadata>
Created by potrace 1.14, written by Peter Selinger 2001-2017
</metadata>
<g transform="translate(0.000000,512.000000) scale(0.100000,-0.100000)"
fill="#000000" stroke="none">
<path d="M2505 4743 c-206 -25 -368 -99 -531 -239 l-60 -53 -60 20 c-415 137
-894 -55 -1109 -446 -31 -57 -85 -198 -85 -223 0 -10 -19 -27 -47 -41 -290
-148 -497 -406 -580 -720 -21 -80 -26 -120 -27 -241 0 -80 2 -165 6 -190 57
-355 292 -671 613 -820 72 -33 186 -73 240 -84 17 -3 44 -8 60 -11 56 -11 244
-15 291 -6 46 9 49 8 73 -22 39 -48 163 -172 189 -189 12 -8 51 -42 87 -75 96
-91 222 -153 392 -195 129 -31 340 -31 480 1 93 22 103 22 118 8 40 -41 108
-89 200 -142 151 -87 193 -114 280 -179 144 -107 348 -328 434 -469 13 -20 31
-42 41 -47 30 -16 454 -13 493 4 41 17 71 51 87 98 12 32 10 53 -18 190 -18
84 -48 232 -68 329 l-36 175 79 80 c61 61 134 153 167 211 1 1 39 7 86 13 377
52 677 310 785 676 38 127 45 311 17 444 -50 242 -197 461 -399 597 -35 23
-67 43 -73 45 -7 2 -7 20 0 58 25 127 12 315 -32 450 -155 480 -664 754 -1148
620 l-74 -21 -35 43 c-130 161 -321 282 -526 333 -66 16 -242 27 -310 18z"/>
</g>
</svg>
